PathFileType	3	(X/Y/Z)	C:\Users\koon_\Desktop\
DataRate	CameraRate	NumFrames	NumMarkers	Units	OrigDataRate	OrigDataStartFrame	OrigNumFrames
100.0	100.0	12	27	mm	100.0	1018	2034	
Frame#	Time	GM:LFHD			GM:RFHD			GM:LBHD			GM:RBHD			GM:C7			GM:T10			GM:CLAV			GM:STRN			GM:RBAK			GM:LSHO			GM:LUPA			GM:LELB			GM:LFRA			GM:LWRA			GM:LWRB			GM:LFIN			GM:RSHO			GM:RUPA			GM:RELB			GM:RFRA			GM:RWRA			GM:RWRB			GM:RFIN			GM:LASI			GM:RASI			GM:LPSI			GM:RPSI			
		X1	Y1	Z1	X2	Y2	Z2	X3	Y3	Z3	X4	Y4	Z4	X5	Y5	Z5	X6	Y6	Z6	X7	Y7	Z7	X8	Y8	Z8	X9	Y9	Z9	X10	Y10	Z10	X11	Y11	Z11	X12	Y12	Z12	X13	Y13	Z13	X14	Y14	Z14	X15	Y15	Z15	X16	Y16	Z16	X17	Y17	Z17	X18	Y18	Z18	X19	Y19	Z19	X20	Y20	Z20	X21	Y21	Z21	X22	Y22	Z22	X23	Y23	Z23	X24	Y24	Z24	X25	Y25	Z25	X26	Y26	Z26	X27	Y27	Z27	
1018	10.17	52.142677	1458.1985	-105.26472	-101.79772	1450.7968	-105.18319	54.5495	1414.9911	-231.11311	-109.65238	1412.9824	-215.34926	-27.235147	1296.139	-264.41956	-21.745508	1145.873	-380.41058	-9.0506029	1178.7686	-137.77931	-3.7971444	1023.5343	-153.29614	-121.38757	1214.1003	-337.62201	150.27104	1252.0321	-206.63934	212.49362	1152.6715	-236.21596	238.48869	961.4278	-334.01926	208.66415	839.85919	-251.27402	206.30005	770.78632	-231.01576	246.38303	750.74677	-281.69025	219.16357	692.85779	-202.80728	-198.04987	1222.2388	-172.21248	-257.71161	1004.8359	-236.50446	-288.80695	930.51257	-301.23615	-254.22311	872.48273	-234.12178	-223.25645	748.21307	-206.94429	-259.4848	725.75293	-251.29756	-234.16878	679.57892	-171.65414	127.25356	798.24719	-304.74063	-160.24077	798.4986	-290.9364				-104.55775	844.08167	-493.32184
1019	10.18	52.081264	1452.4829	-104.8928	-101.93008	1445.2474	-104.81785	54.48151	1408.4725	-230.54124	-109.80179	1406.8307	-214.62248	-27.156982	1290.4407	-263.01712	-21.519964	1140.8109	-379.96045	-9.2161541	1172.6185	-136.524	-4.1079612	1017.3771	-152.12372	-121.36852	1208.7141	-336.68091	150.19757	1245.4919	-204.89558	211.62303	1146.0117	-234.10721	238.78214	955.76825	-332.79196	211.08661	833.98395	-249.29208	209.32011	764.88898	-228.94856	249.36707	745.1095	-279.61398	222.50362	687.38086	-200.45363	-198.00864	1215.8771	-171.43372	-257.51221	998.9682	-235.11478	-289.20496	924.57159	-299.85287	-255.45299	866.62402	-231.90036	-225.85246	742.32593	-203.34854	-262.2525	719.91638	-247.72873	-237.52252	674.39453	-167.44704	127.32969	793.37903	-304.81378	-160.40222	793.18512	-291.1073				-104.33829	838.87073	-493.43225
1020	10.19	52.028564	1447.0851	-104.56786	-101.93397	1440.0127	-104.50388	54.472687	1402.2494	-230.0408	-109.74097	1400.8789	-214.11481	-27.002777	1284.8997	-261.88181	-21.460907	1135.6106	-379.27502	-9.5521307	1166.7723	-135.45929	-4.2318425	1011.5543	-151.13318	-121.17323	1203.5802	-336.0083	150.02679	1239.3221	-203.37727	211.02716	1139.8708	-232.37836	239.24806	950.39111	-331.37704	213.81604	828.34906	-247.37534	213.82028	759.23059	-226.3759	252.58664	739.61566	-277.39746	226.25534	682.1601	-198.05721	-197.98148	1209.8516	-171.11375	-257.4415	993.51489	-233.74361	-290.00806	918.85852	-298.35828	-256.99371	861.2276	-229.53188	-229.06407	736.92084	-199.43617	-265.70117	714.47797	-243.74475	-241.73335	669.47192	-163.0652	127.42976	788.70972	-304.77618	-160.5508	788.12872	-291.07938				-104.20932	833.70996	-493.3721
1021	10.2	52.062992	1441.8574	-104.38042	-101.91173	1434.9762	-104.41222	54.547855	1396.3903	-229.64999	-109.15813	1395.4434	-213.93025	-26.818951	1279.5906	-260.98444	-21.477808	1130.0376	-376.67734	-9.6891394	1161.2283	-134.43449	-4.4324036	1006.0421	-150.13617	-120.91443	1198.6886	-335.52859	149.8669	1233.4902	-202.15298	210.79987	1134.342	-231.19995	239.43797	945.0415	-329.69473	217.6217	823.40222	-245.01166	216.86505	753.7428	-224.46715	257.18661	734.89331	-275.62814	232.61841	677.35986	-195.48737	-197.96521	1204.2644	-170.8564	-257.51871	988.47607	-232.40907	-291.15311	913.74091	-296.97638	-259.07144	856.40851	-226.96252	-233.12642	732.00153	-195.20192	-270.00378	709.59692	-239.51781	-247.0426	665.01196	-158.18341	127.67559	784.21021	-304.53784	-160.63208	783.23059	-290.65082				-104.20799	828.6488	-493.04352
1022	10.21	52.1506	1437.0024	-104.34348	-101.85976	1430.3315	-104.39022	54.558506	1390.8606	-229.4023	-109.14552	1390.2587	-213.8033	-26.707464	1274.6262	-260.33008	-21.510269	1125.6243	-376.95605	-9.9024878	1156.0854	-133.55757	-4.4946446	1000.8849	-149.02693	-120.50874	1194.0309	-335.24677	149.65533	1227.9719	-201.14639	210.94354	1129.3422	-230.53317	240.91556	940.25134	-328.14435	220.20378	817.94891	-243.10291	221.36723	748.53186	-222.33919	262.33536	730.37561	-273.86963	239.02396	672.76337	-193.13396	-198.03406	1199.1046	-170.92401	-257.9184	984.04346	-231.16632	-292.39587	908.85315	-295.77368	-261.7128	852.05884	-224.2486	-238.26123	727.64459	-190.56604	-275.15472	705.26886	-234.9474	-253.45721	661.13574	-153.07162	127.92	779.90436	-304.21527	-160.72459	778.2901	-289.82825				-104.24789	823.71527	-492.57605
1023	10.22	52.232754	1432.4806	-104.51579	-101.7513	1426.2052	-104.54517	54.637688	1385.7788	-229.31821	-109.21876	1385.6086	-213.86166	-26.654816	1270.0631	-259.86743	-21.547058	1121.485	-377.50726	-10.185802	1151.3716	-132.78461	-5.712193	995.9696	-150.35773	-120.07414	1189.7894	-335.19037	149.41293	1222.8177	-200.52756	211.1869	1124.6277	-230.19916	242.20139	935.74146	-326.42935	225.86601	813.75189	-240.3275	227.92511	743.73737	-219.75888	268.53052	726.30328	-271.79828	247.25308	668.70428	-190.55627	-198.06256	1194.6188	-171.04036	-258.78714	980.20709	-230.07326	-294.68481	904.71161	-293.88702	-265.15686	848.3786	-221.51225	-244.40387	723.88458	-185.74419	-281.2648	701.58795	-230.16844	-261.29062	658.2334	-147.70792	127.80956	775.57275	-303.63098	-160.79041	773.46143	-288.80923				-104.26102	818.89362	-491.91223
1024	10.23	52.454971	1428.3596	-104.79388	-101.51877	1422.4325	-104.78391	54.692543	1381.1965	-229.48248	-109.60493	1381.4384	-213.82918	-26.584274	1265.9069	-259.54025	-21.673018	1117.2725	-376.93423	-10.441839	1147.2177	-132.25952	-5.2405953	992.02478	-147.47426	-119.67909	1185.7626	-335.21725	149.05235	1218.2593	-200.28264	211.16135	1120.2128	-229.41269	244.05998	931.75775	-324.92883	230.31744	809.31781	-238.22948	235.79651	739.67706	-217.02057	276.15948	723.13489	-269.5123	256.24243	665.03302	-188.23149	-197.97737	1190.7124	-171.31018	-260.12292	977.25897	-229.03572	-297.28	901.46417	-292.14063	-269.4856	845.37616	-218.66679	-251.77518	720.97064	-180.62975	-288.41373	698.78931	-225.34543	-270.34982	656.33801	-142.17229	128.31592	772.07465	-303.18381	-160.9445	768.70648	-287.76996				-104.36248	814.14569	-491.22809
1025	10.24	52.68116	1424.7126	-105.36955	-101.37106	1419.2701	-105.26937	54.735962	1377.1199	-229.81844	-109.61974	1377.8635	-214.1205	-26.538435	1262.343	-259.45554	-21.94451	1112.6052	-374.50134	-10.547829	1143.5565	-131.85544	-5.2953987	988.38855	-146.58153	-119.40079	1182.0927	-335.38104	148.62944	1214.2708	-200.30182	210.72636	1116.5438	-228.46991	246.30666	928.58398	-323.53049	236.89203	805.98468	-235.87894	244.7157	736.45148	-214.51636	285.31137	721.19427	-267.08679	268.0701	662.82343	-185.69231	-197.9704	1187.4785	-171.79385	-261.89032	975.2312	-227.90131	-300.39426	899.12732	-290.66248	-274.50873	843.31946	-215.84644	-260.37943	719.04187	-175.36079	-296.66309	696.90283	-220.56723	-281.00623	655.93201	-136.32838	128.5443	768.68872	-302.42114	-161.14282	764.20441	-286.56924				-104.50815	809.65057	-490.38245
1026	10.25	52.977764	1421.6334	-106.05672	-101.07837	1416.6128	-105.81246	54.795929	1373.7096	-230.42004	-109.44453	1374.8423	-214.55771	-26.504198	1259.1476	-259.61832	-22.278873	1109.6732	-376.04095	-10.81805	1140.5016	-131.66898	-5.6060314	985.39142	-145.85268	-119.30832	1178.7892	-335.73154	148.15802	1211.1622	-200.64069	210.68747	1113.8535	-227.89986	248.66072	926.17841	-322.17007	244.85428	803.76233	-233.59738	255.02301	734.44971	-211.925	295.36115	720.08435	-264.72433	280.71259	662.13812	-183.04602	-197.80437	1184.9032	-172.34549	-264.16751	974.10663	-226.98497	-304.21402	898.00311	-289.30005	-280.43475	842.53577	-212.9639	-270.31134	718.46625	-170.16591	-306.21738	696.37555	-215.78203	-293.10028	656.95178	-130.59323	128.90489	765.61163	-301.48782	-161.37633	759.9422	-285.18649				-104.68901	805.39545	-489.35495
1027	10.26	53.240047	1419.2488	-106.89633	-100.7262	1414.4869	-106.51876	54.915638	1371.0327	-231.16281	-109.2991	1372.4808	-215.13512	-26.479305	1256.4474	-260.18201	-22.636412	1105.9475	-374.36359	-10.904611	1138.1332	-131.73061	-6.5280399	982.77472	-147.24583	-119.24896	1176.0197	-336.31122	147.67702	1208.9617	-201.38361	210.90909	1112.1898	-227.93153	252.0687	925.09076	-321.34601	254.13486	803.17151	-231.50208	266.46649	733.94751	-209.76791	306.50778	720.68671	-262.7197	295.01453	663.17822	-180.80997	-197.60005	1183.1106	-173.09259	-266.97144	974.01978	-226.22147	-308.71112	897.95032	-288.27463	-287.31348	843.16809	-210.26776	-281.60565	719.43573	-165.02577	-317.05942	697.44391	-210.99355	-306.74878	659.36572	-124.97935	129.43079	762.71527	-300.18204	-161.6777	756.12164	-283.57657				-104.93771	801.58191	-488.10013
1028	10.27	53.62281	1417.6371	-108.02386	-100.40376	1412.9474	-107.35355	55.047512	1369.2048	-232.22589	-109.22668	1371.0133	-215.95932	-26.524572	1254.3656	-261.07764	-22.955618	1103.2794	-374.47049	-10.942953	1136.5525	-131.89233	-5.7641368	981.48291	-144.64476	-119.15169	1173.855	-337.16849	147.319	1207.6006	-202.58945	211.53793	1111.3785	-228.26924	256.17212	925.23737	-320.86932	264.10541	804.05627	-229.99982	278.90289	735.19122	-208.02626	318.73575	723.16766	-261.31805	310.6463	666.19391	-178.77463	-197.43777	1182.0104	-174.10411	-270.33673	974.90131	-225.76431	-313.97153	899.0509	-287.23721	-295.19196	845.05847	-207.64891	-294.16125	722.01941	-159.8763	-329.37891	700.07849	-206.41913	-321.84131	663.35553	-119.49937	129.4832	760.9809	-298.89392	-162.03915	752.71448	-281.77774				-105.24654	798.18176	-486.6564
1029	10.28	53.948963	1416.7343	-109.25145	-99.994766	1412.365	-108.33964	55.131115	1368.4004	-233.50327	-109.217	1370.4042	-217.13367	-26.576157	1253.0922	-262.27118	-23.242449	1101.1891	-374.78439	-10.916914	1135.7626	-132.36575	-5.8707705	980.74664	-144.28841	-119.03526	1172.4264	-338.15421	146.99101	1207.0774	-204.08817	212.38582	1111.4998	-228.97282	261.05081	926.56677	-320.66876	275.03717	806.6532	-228.73013	292.62213	738.39288	-206.6555	331.69806	727.15125	-260.60431	327.55847	671.11896	-177.15709	-197.32376	1181.8097	-175.33246	-274.22974	977	-225.45818	-320.5163	901.72498	-286.54114	-304.10193	848.34418	-204.98851	-308.16534	726.21448	-155.02287	-343.13965	704.46893	-201.9539	-338.29501	668.888	-114.2029	129.61302	759.32074	-297.1282	-162.42792	749.83594	-279.86935				-105.58265	795.31018	-485.10315
